<svg xmlns="http://www.w3.org/2000/svg" viewBox="0 0 256 256" focusable="false" color="var(--token-c8809533-d74e-4474-af14-ef3a211efd13, rgb(1, 70, 112))" style="user-select: none; width: 100%; height: 100%; display: inline-block; fill: var(--token-c8809533-d74e-4474-af14-ef3a211efd13, rgb(1, 70, 112)); color: var(--token-c8809533-d74e-4474-af14-ef3a211efd13, rgb(1, 70, 112)); flex-shrink: 0;"><g color="var(--token-c8809533-d74e-4474-af14-ef3a211efd13, rgb(1, 70, 112))" weight="thin"><path d="M100,60H40A12,12,0,0,0,28,72v64a12,12,0,0,0,12,12h64v12a36,36,0,0,1-36,36,4,4,0,0,0,0,8,44.05,44.05,0,0,0,44-44V72A12,12,0,0,0,100,60Zm4,80H40a4,4,0,0,1-4-4V72a4,4,0,0,1,4-4h60a4,4,0,0,1,4,4ZM216,60H156a12,12,0,0,0-12,12v64a12,12,0,0,0,12,12h64v12a36,36,0,0,1-36,36,4,4,0,0,0,0,8,44.05,44.05,0,0,0,44-44V72A12,12,0,0,0,216,60Zm4,80H156a4,4,0,0,1-4-4V72a4,4,0,0,1,4-4h60a4,4,0,0,1,4,4Z"></path></g></svg>