<svg xmlns="http://www.w3.org/2000/svg" viewBox="0 0 256 256" focusable="false" color="var(--token-c8809533-d74e-4474-af14-ef3a211efd13, rgb(20, 20, 20))" style="user-select: none; width: 100%; height: 100%; display: inline-block; fill: var(--token-c8809533-d74e-4474-af14-ef3a211efd13, rgb(20, 20, 20)); color: var(--token-c8809533-d74e-4474-af14-ef3a211efd13, rgb(20, 20, 20)); flex-shrink: 0;"><g color="var(--token-c8809533-d74e-4474-af14-ef3a211efd13, rgb(20, 20, 20))" weight="light"><path d="M240,210H222V96a14,14,0,0,0-14-14H142V32a14,14,0,0,0-21.77-11.64l-80,53.33A14,14,0,0,0,34,85.34V210H16a6,6,0,0,0,0,12H240a6,6,0,0,0,0-12ZM208,94a2,2,0,0,1,2,2V210H142V94ZM46,85.34a2,2,0,0,1,.89-1.66l80-53.34A2,2,0,0,1,130,32V210H46ZM110,112v16a6,6,0,0,1-12,0V112a6,6,0,0,1,12,0Zm-32,0v16a6,6,0,0,1-12,0V112a6,6,0,0,1,12,0Zm0,56v16a6,6,0,0,1-12,0V168a6,6,0,0,1,12,0Zm32,0v16a6,6,0,0,1-12,0V168a6,6,0,0,1,12,0Z"></path></g></svg>