<svg xmlns="http://www.w3.org/2000/svg" viewBox="0 0 256 256" focusable="false" color="var(--token-c8809533-d74e-4474-af14-ef3a211efd13, rgb(20, 20, 20))" style="user-select: none; width: 100%; height: 100%; display: inline-block; fill: var(--token-c8809533-d74e-4474-af14-ef3a211efd13, rgb(20, 20, 20)); color: var(--token-c8809533-d74e-4474-af14-ef3a211efd13, rgb(20, 20, 20)); flex-shrink: 0;"><g color="var(--token-c8809533-d74e-4474-af14-ef3a211efd13, rgb(20, 20, 20))" weight="light"><path d="M26,104a6,6,0,0,1,6-6h80a6,6,0,0,1,0,12H32A6,6,0,0,1,26,104Zm198-6H144a6,6,0,0,0,0,12h80a6,6,0,0,0,0-12ZM72,138H32a6,6,0,0,0,0,12H72a6,6,0,0,0,0-12Zm152,0H184a6,6,0,0,0,0,12h40a6,6,0,0,0,0-12ZM98,144a6,6,0,0,0,6,6h48a6,6,0,0,0,0-12H104A6,6,0,0,0,98,144ZM56,178H32a6,6,0,0,0,0,12H56a6,6,0,0,0,0-12Zm56,0H88a6,6,0,0,0,0,12h24a6,6,0,0,0,0-12Zm56,0H144a6,6,0,0,0,0,12h24a6,6,0,0,0,0-12Zm56,0H200a6,6,0,0,0,0,12h24a6,6,0,0,0,0-12ZM32,70H224a6,6,0,0,0,0-12H32a6,6,0,0,0,0,12Z"></path></g></svg>