<svg xmlns="http://www.w3.org/2000/svg" viewBox="0 0 256 256" focusable="false" color="var(--token-c8809533-d74e-4474-af14-ef3a211efd13, rgb(20, 20, 20))" style="user-select: none; width: 100%; height: 100%; display: inline-block; fill: var(--token-c8809533-d74e-4474-af14-ef3a211efd13, rgb(20, 20, 20)); color: var(--token-c8809533-d74e-4474-af14-ef3a211efd13, rgb(20, 20, 20)); flex-shrink: 0;"><g color="var(--token-c8809533-d74e-4474-af14-ef3a211efd13, rgb(20, 20, 20))" weight="light"><path d="M245.51,149.64l-48-112A6,6,0,0,0,192,34H64a6,6,0,0,0-5.51,3.64l-48,112A6,6,0,0,0,16,158H122v52H96a6,6,0,0,0,0,12h64a6,6,0,0,0,0-12H134V158h60v34a6,6,0,0,0,12,0V158h34a6,6,0,0,0,5.51-8.36ZM25.1,146,68,46H188L230.9,146Z"></path></g></svg>