<svg xmlns="http://www.w3.org/2000/svg" viewBox="0 0 256 256" focusable="false" color="var(--token-c8809533-d74e-4474-af14-ef3a211efd13, rgb(1, 70, 112))" style="user-select: none; width: 100%; height: 100%; display: inline-block; fill: var(--token-c8809533-d74e-4474-af14-ef3a211efd13, rgb(1, 70, 112)); color: var(--token-c8809533-d74e-4474-af14-ef3a211efd13, rgb(1, 70, 112)); flex-shrink: 0;"><g color="var(--token-c8809533-d74e-4474-af14-ef3a211efd13, rgb(1, 70, 112))" weight="thin"><path d="M220,216a4,4,0,0,1-4,4H40a4,4,0,0,1,0-8H216A4,4,0,0,1,220,216Zm-80-40V80a12,12,0,0,1,12-12h40a12,12,0,0,1,12,12v96a12,12,0,0,1-12,12H152A12,12,0,0,1,140,176Zm8,0a4,4,0,0,0,4,4h40a4,4,0,0,0,4-4V80a4,4,0,0,0-4-4H152a4,4,0,0,0-4,4Zm-96,0V40A12,12,0,0,1,64,28h40a12,12,0,0,1,12,12V176a12,12,0,0,1-12,12H64A12,12,0,0,1,52,176Zm8,0a4,4,0,0,0,4,4h40a4,4,0,0,0,4-4V40a4,4,0,0,0-4-4H64a4,4,0,0,0-4,4Z"></path></g></svg>