<svg xmlns="http://www.w3.org/2000/svg" viewBox="0 0 256 256" focusable="false" color="var(--token-8c47652b-dea5-4767-a9f2-5d952dcce49a, rgb(248, 248, 245)) /* {&quot;name&quot;:&quot;White&quot;} */" style="user-select: none; width: 100%; height: 100%; display: inline-block; fill: var(--token-8c47652b-dea5-4767-a9f2-5d952dcce49a, rgb(248, 248, 245)); color: var(--token-8c47652b-dea5-4767-a9f2-5d952dcce49a, rgb(248, 248, 245)); flex-shrink: 0;"><g color="var(--token-8c47652b-dea5-4767-a9f2-5d952dcce49a, rgb(248, 248, 245)) /* {&quot;name&quot;:&quot;White&quot;} */" weight="fill"><path d="M216,24H40A16,16,0,0,0,24,40V216a16,16,0,0,0,16,16H216a16,16,0,0,0,16-16V40A16,16,0,0,0,216,24ZM96,176a8,8,0,0,1-16,0V112a8,8,0,0,1,16,0ZM88,96a12,12,0,1,1,12-12A12,12,0,0,1,88,96Zm96,80a8,8,0,0,1-16,0V140a20,20,0,0,0-40,0v36a8,8,0,0,1-16,0V112a8,8,0,0,1,15.79-1.78A36,36,0,0,1,184,140Z"></path></g></svg>